<!-- <svg height="auto" viewBox="0 0 2000 1000" xmlns="http://www.w3.org/2000/svg"><path d="M0 401.583c28.6 13.22 85.8 70.34 143 66.098 57.2-4.242 85.8-139.495 143-87.31 57.2 52.186 85.8 399.513 143 348.237 57.2-51.277 85.8-591.321 143-604.619 57.2-13.297 85.8 509.068 143 538.133 57.2 29.065 85.8-419.064 143-392.81 57.2 26.256 85.8 472.077 143 524.084 57.2 52.007 85.8-264.72 143-264.048 57.2.672 85.8 233.179 143 267.408 57.2 34.23 85.8-88.474 143-96.262 57.2-7.787 85.8 145.578 143 57.325 57.2-88.254 85.8-426.63 143-498.592 57.2-71.963 85.8 126.902 143 138.778 57.2 11.876 114.4-63.518 143-79.397L2000 1000H0Z" fill="#444cf71a"/><path d="M0 401.583c28.6 13.22 85.8 70.34 143 66.098 57.2-4.242 85.8-139.495 143-87.31 57.2 52.186 85.8 399.513 143 348.237 57.2-51.277 85.8-591.321 143-604.619 57.2-13.297 85.8 509.068 143 538.133 57.2 29.065 85.8-419.064 143-392.81 57.2 26.256 85.8 472.077 143 524.084 57.2 52.007 85.8-264.72 143-264.048 57.2.672 85.8 233.179 143 267.408 57.2 34.23 85.8-88.474 143-96.262 57.2-7.787 85.8 145.578 143 57.325 57.2-88.254 85.8-426.63 143-498.592 57.2-71.963 85.8 126.902 143 138.778 57.2 11.876 114.4-63.518 143-79.397" fill="none" stroke="#444cf7" stroke-width="4"/><g fill="#444cf7"><circle cy="401.583" r="8"/><circle cx="143" cy="467.681" r="8"/><circle cx="286" cy="380.371" r="8"/><circle cx="429" cy="728.608" r="8"/><circle cx="572" cy="123.989" r="8"/><circle cx="715" cy="662.122" r="8"/><circle cx="858" cy="269.313" r="8"/><circle cx="1001" cy="793.396" r="8"/><circle cx="1144" cy="529.348" r="8"/><circle cx="1287" cy="796.756" r="8"/><circle cx="1430" cy="700.494" r="8"/><circle cx="1573" cy="757.819" r="8"/><circle cx="1716" cy="259.227" r="8"/><circle cx="1859" cy="398.005" r="8"/><circle cx="2002" cy="318.608" r="8"/></g></svg> -->

<svg height="auto" viewBox="0 0 2000 1000" xmlns="http://www.w3.org/2000/svg">
    <!-- Given shape -->
    <path
        d="M0 401.583c28.6 13.22 85.8 70.34 143 66.098 57.2-4.242 85.8-139.495 143-87.31 57.2 52.186 85.8 399.513 143 348.237 57.2-51.277 85.8-591.321 143-604.619 57.2-13.297 85.8 509.068 143 538.133 57.2 29.065 85.8-419.064 143-392.81 57.2 26.256 85.8 472.077 143 524.084 57.2 52.007 85.8-264.72 143-264.048 57.2.672 85.8 233.179 143 267.408 57.2 34.23 85.8-88.474 143-96.262 57.2-7.787 85.8 145.578 143 57.325 57.2-88.254 85.8-426.63 143-498.592 57.2-71.963 85.8 126.902 143 138.778 57.2 11.876 114.4-63.518 143-79.397L2000 1000H0Z"
        fill="#444cf71a" />

    <path
        d="M0 401.583c28.6 13.22 85.8 70.34 143 66.098 57.2-4.242 85.8-139.495 143-87.31 57.2 52.186 85.8 399.513 143 348.237 57.2-51.277 85.8-591.321 143-604.619 57.2-13.297 85.8 509.068 143 538.133 57.2 29.065 85.8-419.064 143-392.81 57.2 26.256 85.8 472.077 143 524.084 57.2 52.007 85.8-264.72 143-264.048 57.2.672 85.8 233.179 143 267.408 57.2 34.23 85.8-88.474 143-96.262 57.2-7.787 85.8 145.578 143 57.325 57.2-88.254 85.8-426.63 143-498.592 57.2-71.963 85.8 126.902 143 138.778 57.2 11.876 114.4-63.518 143-79.397"
        fill="none" stroke="#444cf7" stroke-width="4" />

    <!-- Paths following the given shape -->
    <path d="M0 401.583" fill="none" stroke="#444cf7" stroke-width="4" />
    <path d="M143 0L401.583" fill="none" stroke="#444cf7" stroke-width="4" />
    <path d="M286 467.681L429 380.371" fill="none" stroke="#444cf7" stroke-width="4" />
    <path d="M429 380.371L572 728.608" fill="none" stroke="#444cf7" stroke-width="4" />
    <path d="M572 728.608L715 123.989" fill="none" stroke="#444cf7" stroke-width="4" />
    <path d="M715 123.989L858 662.122" fill="none" stroke="#444cf7" stroke-width="4" />
    <path d="M858 662.122L1001 269.313" fill="none" stroke="#444cf7" stroke-width="4" />
    <path d="M1001 269.313L1144 793.396" fill="none" stroke="#444cf7" stroke-width="4" />
    <path d="M1144 793.396L1287 529.348" fill="none" stroke="#444cf7" stroke-width="4" />
    <path d="M1287 529.348L1430 796.756" fill="none" stroke="#444cf7" stroke-width="4" />
    <path d="M1430 796.756L1573 700.494" fill="none" stroke="#444cf7" stroke-width="4" />
    <path d="M1573 700.494L1716 757.819" fill="none" stroke="#444cf7" stroke-width="4" />
    <path d="M1716 757.819L1859 259.227" fill="none" stroke="#444cf7" stroke-width="4" />
    <path d="M1859 259.227L2002 398.005" fill="none" stroke="#444cf7" stroke-width="4" />

    <!-- Circles -->
    <g fill="#444cf7">
        <circle cy="401.583" r="8" fill="#444cf7" />
        <circle cx="143" cy="467.681" r="8" fill="#444cf7" />
        <circle cx="286" cy="380.371" r="8" fill="#444cf7" />
        <circle cx="429" cy="728.608" r="8" fill="#444cf7" />
        <circle cx="572" cy="123.989" r="8" fill="#444cf7" />
        <circle cx="715" cy="662.122" r="8" fill="#444cf7" />
        <circle cx="858" cy="269.313" r="8" fill="#444cf7" />
        <circle cx="1001" cy="793.396" r="8" fill="#444cf7" />
        <circle cx="1144" cy="529.348" r="8" fill="#444cf7" />
        <circle cx="1287" cy="796.756" r="8" fill="#444cf7" />
        <circle cx="1430" cy="700.494" r="8" fill="#444cf7" />
        <circle cx="1573" cy="757.819" r="8" fill="#444cf7" />
        <circle cx="1716" cy="259.227" r="8" fill="#444cf7" />
        <circle cx="1859" cy="398.005" r="8" fill="#444cf7" />
        <circle cx="2002" cy="318.608" r="8" fill="#444cf7" />
    </g>
</svg>